<svg xmlns="http://www.w3.org/2000/svg" viewBox="0 0 800 200" width="800" height="200"><svg xmlns="http://www.w3.org/2000/svg" viewBox="0 0 256 256" width="200" height="200" x="0" y="0">
  <defs>
    <linearGradient id="bg" x1="0" y1="0" x2="1" y2="1">
      <stop offset="0" stop-color="#1e3a5f"/><stop offset="1" stop-color="#0f2033"/>
    </linearGradient>
    <linearGradient id="bolt" x1="0" y1="0" x2="0" y2="1">
      <stop offset="0" stop-color="#ffd166"/><stop offset="1" stop-color="#f77f00"/>
    </linearGradient>
  </defs>
  <rect width="256" height="256" rx="56" fill="url(#bg)"/>
  <!-- hus -->
  <path d="M52 132 L128 66 L204 132" fill="none" stroke="#e8f1ff" stroke-width="14" stroke-linecap="round" stroke-linejoin="round"/>
  <path d="M72 122 V196 a8 8 0 0 0 8 8 h96 a8 8 0 0 0 8 -8 V122" fill="none" stroke="#e8f1ff" stroke-width="14" stroke-linecap="round" stroke-linejoin="round"/>
  <!-- tre effekttopper (nettleie) -->
  <rect x="94" y="170" width="16" height="22" rx="3" fill="#7fb3ff"/>
  <rect x="120" y="150" width="16" height="42" rx="3" fill="#7fb3ff"/>
  <rect x="146" y="162" width="16" height="30" rx="3" fill="#7fb3ff"/>
  <!-- lyn -->
  <path d="M136 92 L112 138 H132 L122 172 L152 122 H132 Z" fill="url(#bolt)" stroke="#0f2033" stroke-width="4" stroke-linejoin="round"/>
</svg>

<text x="230" y="112" font-family="Inter, Helvetica, Arial, sans-serif" font-size="80" font-weight="700" fill="#1e3a5f">KI Energi</text>
<text x="232" y="156" font-family="Inter, Helvetica, Arial, sans-serif" font-size="26" fill="#5b6b7f">Selvlærende energistyring for norske hjem</text></svg>